<svg width="100%" height="100%" viewBox="0 0 1031 900" version="1.1" xmlns="http://www.w3.org/2000/svg" xmlns:xlink="http://www.w3.org/1999/xlink" xml:space="preserve" xmlns:serif="http://www.serif.com/" style="fill-rule:evenodd;clip-rule:evenodd;stroke-linecap:round;stroke-linejoin:round;stroke-miterlimit:1.5;">
    <style>

        .outline {
        stroke: #0C0C0D;
        }

        .fill {
            fill: #0C0C0D;
        }

        @media (prefers-color-scheme: dark) {
        .outline {
            stroke: white;
        }
        .fill {
            fill: white;
        }
        }
    
    </style>
    <g>
        <path class="outline" d="M25,449.522C25,449.522 56.798,504.597 80.719,546.029C96.795,573.875 126.507,591.029 158.661,591.029C206.502,591.029 270.098,591.029 270.098,591.029C270.098,591.029 238.3,646.105 214.379,687.537C198.302,715.383 198.302,749.69 214.379,777.537C238.3,818.968 270.098,874.044 270.098,874.044L381.535,874.044C413.689,874.044 443.4,856.89 459.477,829.044C483.398,787.612 515.196,732.537 515.196,732.537C515.196,732.537 546.994,787.612 570.914,829.044C586.991,856.89 616.703,874.044 648.857,874.044L708.332,874.044C740.486,874.044 770.197,856.89 786.274,829.044C810.195,787.612 841.993,732.537 841.993,732.537L760.294,591.029C760.294,591.029 823.889,591.029 871.731,591.029C903.885,591.029 933.596,573.875 949.673,546.029C973.594,504.597 1005.39,449.522 1005.39,449.522C1005.39,449.522 964.241,378.247 940.35,336.866C930.042,319.013 910.993,308.015 890.377,308.015C842.594,308.015 760.294,308.015 760.294,308.015L841.993,166.507C841.993,166.507 810.195,111.432 786.274,70C770.197,42.154 740.486,25 708.332,25C689.335,25 667.854,25 648.857,25C616.703,25 586.991,42.154 570.914,70C546.994,111.432 515.196,166.507 515.196,166.507C515.196,166.507 483.398,111.432 459.477,70C443.4,42.154 413.689,25 381.535,25L270.098,25C270.098,25 238.3,80.076 214.379,121.507C198.302,149.353 198.302,183.661 214.379,211.507C238.3,252.939 270.098,308.015 270.098,308.015L106.699,308.015L25,449.522Z" style="fill:none;stroke-width:50px;"/>
        <path class="fill" d="M433.496,308.015L106.699,308.015C106.699,308.015 138.099,362.4 161.824,403.493C177.9,431.339 207.612,448.493 239.766,448.493C331.972,448.493 514.601,448.493 514.601,448.493L515.196,449.522L270.098,874.044C270.098,874.044 333.694,874.044 381.535,874.044C413.689,874.044 443.4,856.89 459.477,829.044C505.58,749.191 596.895,591.029 596.895,591.029C596.895,591.029 628.525,645.814 652.423,687.207C668.602,715.23 698.578,732.41 730.935,732.206C778.536,731.905 841.399,731.507 841.399,731.507L678.594,449.522L679.189,448.493L1004.8,448.493L923.692,308.015L760.294,308.015L841.993,166.507C841.993,166.507 779.423,165.953 731.919,165.532C699.481,165.244 669.398,182.435 653.179,210.528C629.015,252.381 596.895,308.015 596.895,308.015C596.895,308.015 505.58,149.852 459.477,70C443.4,42.154 413.689,25 381.535,25C333.694,25 270.098,25 270.098,25L433.496,308.015Z" style="stroke-width:33.33px;"/>
    </g>
</svg>
